<?xml version="1.0" encoding="UTF-8"?>
<!DOCTYPE svg PUBLIC "-//W3C//DTD SVG 1.1//EN" "http://www.w3.org/Graphics/SVG/1.1/DTD/svg11.dtd">
<!-- Creator: CorelDRAW 2020 (64-Bit Evaluation Version) -->
<svg xmlns="http://www.w3.org/2000/svg" xml:space="preserve" width="8.26772in" height="11.6929in" version="1.1" style="shape-rendering:geometricPrecision; text-rendering:geometricPrecision; image-rendering:optimizeQuality; fill-rule:evenodd; clip-rule:evenodd"
viewBox="0 0 8267.72 11692.91"
 xmlns:xlink="http://www.w3.org/1999/xlink"
 xmlns:xodm="http://www.corel.com/coreldraw/odm/2003">
 <defs>
  <style type="text/css">
   <![CDATA[
    .str0 {stroke:#393185;stroke-width:7.87;stroke-miterlimit:2.61313}
    .fil0 {fill:url(#id0)}
   ]]>
  </style>
  <linearGradient id="id0" gradientUnits="userSpaceOnUse" x1="4333.15" y1="3628.17" x2="4426.86" y2="6257.74">
   <stop offset="0" style="stop-opacity:1; stop-color:#F4AE62"/>
   <stop offset="1" style="stop-opacity:1; stop-color:#FE6DC5"/>
  </linearGradient>
 </defs>
 <g id="Layer_x0020_1">
  <metadata id="CorelCorpID_0Corel-Layer"/>
  <g id="_2089507036528">
   <path class="fil0 str0" d="M2562.52 4084.83c731.96,520.32 1048.43,110.31 1188.7,422 35.27,501.13 -423.54,491.39 -565.29,255 -106.08,-176.95 -110.32,-157.84 -316.8,-244.85 -143.18,-60.35 -242.46,-151.74 -455.74,-151.57 -49.4,95.36 -102.81,162.02 -155.27,267.1l-298.89 577.26c-115.71,242.96 -270.65,484.39 -361.42,745.09 -153.28,440.24 -32.05,71.45 -209.11,439.89 -48.91,101.78 -115.84,210.4 -151.95,303.72 -47.04,121.7 -68.23,204.06 -117.52,309.95 -42.27,90.85 -38.84,56.34 -81.11,143.35 -40.48,83.33 -26.58,75.25 -74.8,151.02 -62.33,98.01 -93.74,162.06 -147.5,273.23 -50.75,104.9 -77.91,225.28 -131.66,329.94l-146.15 273.36c-109.45,208.3 -396.1,741.25 -393.7,956.97 238.99,4.23 2022.93,50.69 2139.9,-25.15 88.75,-57.57 160.64,-254.27 194.63,-366.54 53.13,-175.55 192.96,-374.83 275.99,-527.72 32.28,-59.45 53.46,-131.3 89.26,-205.9l443.12 -931.42c134.88,-335.57 438.98,-620.01 419,-1022.17 -135.7,-63.05 -201.88,-144.06 -402.54,-153.98 -51.77,102.21 -110.32,178.37 -173.93,279.3 -84.94,134.76 -88.09,189.68 -150.29,339.43l-446.54 953.26c-107.35,263.49 112.11,600.67 -238.19,671.96 -216.42,44.03 -251.38,-48.62 -353.7,-119.66 -25.17,-536.41 84.74,-225.51 356.46,-561.22 94.09,-116.25 371.72,-756.44 439.08,-961.88l339.31 -705.19c2.66,-3.87 8.69,-11.72 11.45,-15.95 36.06,-55.29 62.25,-117.29 91.44,-167.13 318.59,-16.96 387.87,206.1 717.68,196.75l255.04 -378.86c217.52,111.4 529.65,906 659.41,1175.31l184.4 337.34c46.23,86.71 59.29,17.99 51.67,126.22 -8.56,122.04 -149.83,84.47 -278.19,84.67 -202.17,0.3 -445.5,-37.3 -643.01,16.4 -202.88,55.14 -262.55,415.62 -427.94,683.45 -87.75,142.16 -42.83,167.38 -112.39,316.98 -140.68,302.56 -409.95,591.3 -397.69,965.03l3349.58 -5.67 6.21 -481.25c-214.28,-11.98 -1360.15,-48.57 -1533.2,23.72 -202.47,84.58 -35.22,133.73 -404.02,107.78 -249.44,-114.1 -190.26,-544.36 76.28,-585.02 242.85,-37.06 232.52,181.7 538.54,183.83 256.62,1.78 1471.62,-55.32 1558.66,22.72 61.28,100.15 37.77,176.5 34.42,324.85l6.57 287.2c38.03,203.22 500.08,126.71 677.07,126.74 229.43,0.05 481.3,13.86 707.43,-3 30.13,-181.12 -389.45,-967.98 -474.19,-1133.31l-799.5 -1637.75c-61.87,-94.49 -89.57,-156.74 -138.18,-248.28 -29.11,-54.83 -51.8,-76.04 -71.04,-119.7 -25.3,-57.44 -26.27,-109.08 -53.74,-179.03l-534.07 -1125.91c-289.28,-13.82 -316.8,71.54 -512.55,172.07 -82.41,42.32 -134.39,65.45 -217.04,108.77l-221.79 144.66c-23.97,293.71 231.86,761.72 455.67,919.05 147.04,103.37 189.67,202.28 164.11,381 -13.34,93.35 -43.6,105.99 -92.02,175.82 -384.09,52.56 -258.67,-1.73 -460.26,-167.35 -4.24,-170.27 55.09,-277.09 17.25,-410.67 -0.72,-2.5 -64.07,-156.44 -67.36,-163.21 -56.24,-114.76 -58.37,-70.2 -104.9,-147.34 -60.41,-100.17 -277.37,-576.26 -277.42,-684.45 50.42,-31.52 130.79,-50.23 194.57,-82.86 416.8,-213.17 49.63,-542.07 -96.52,-846.54 -112.49,-234.31 -219.74,-480.12 -340.33,-698.32 -32.48,-58.79 -58.26,-95.75 -94.07,-162.23 -89.11,-165.46 21.41,-55.15 -125.76,-145.52 -110.04,-67.56 -231.91,-94.63 -268.45,-233.91 -47.53,-181.29 10.09,-283.11 106.13,-352.68 133.27,-96.58 262.73,-42.27 417.31,-19.65 38.44,171.69 85.22,109.45 81.8,261.49 -8.13,360.47 -123.81,130.54 115.33,613.24l143.8 245.44c94.91,154.35 156.19,370.03 243.67,536.55 161.79,307.95 128.13,681.06 537.41,417.97 96.09,-61.78 156.8,-71.69 231.68,-152.14 -49.22,-241.76 -223.78,-441.81 -333.2,-661.85 -153.92,-309.47 -378.46,-942.57 -545.24,-1182.45 -101.53,-146.06 -636.36,-1346.73 -759.23,-1613.73 -58.6,-127.36 -34.76,-150.3 -175.66,-187.18 -128.67,91.94 -508,1016.67 -618.32,1208.7 -48.53,84.46 -49.22,132.7 -83.82,218.3 -36.34,89.84 -65.5,98.27 -122.54,190.74 -146.12,236.98 -280.05,570.87 -408.9,828.43 -108.12,216.17 -343.76,600.41 -355.37,877.09z"/>
  </g>
 </g>
</svg>
